<?xml version="1.0" encoding="utf-8"?>
<!-- Generator: Adobe Illustrator 25.2.1, SVG Export Plug-In . SVG Version: 6.00 Build 0)  -->
<svg version="1.1" id="图层_1" xmlns="http://www.w3.org/2000/svg" xmlns:xlink="http://www.w3.org/1999/xlink" x="0px" y="0px"
	 viewBox="0 0 98.56 25.6" style="enable-background:new 0 0 98.56 25.6;" xml:space="preserve">
<style type="text/css">
	.st0{fill:#12100B;}
	.st1{fill:#FFFFFF;}
</style>
<path class="st0" d="M98.56,23.01V2.59C98.56,1.16,97.4,0,95.97,0H2.59C1.16,0,0,1.16,0,2.59v20.43c0,1.43,1.16,2.59,2.59,2.59
	h93.39C97.4,25.6,98.56,24.44,98.56,23.01z"/>
<g>
	<path class="st1" d="M12.89,4.84c0.03,0.14,0.05,0.32,0.05,0.52C12.21,5.68,11.92,5.91,11.94,7v0.67l-0.5,0.1V7
		C11.43,5.39,12.05,5.14,12.89,4.84 M14.35,4.5c0.03,0.16,0.06,0.33,0.08,0.51c1.32-0.19,1.29,0.36,1.29,1.49v0.42l0.5-0.1V6.49
		C16.22,4.73,15.95,4.26,14.35,4.5 M9.16,8.22V5.91c-0.02-1.44,0.73-1.88,2.1-2.2c2.06-0.48,2.19,0.85,2.19,1.69v1.96l0.5-0.1V5.44
		c0-1.6-0.5-2.8-2.8-2.28c-1.24,0.28-2.5,0.6-2.5,2.7v2.47L9.16,8.22z M15.2,14.32h-3.88v-2.81l3.88-0.57V14.32z M15.2,18.29
		l-3.88-0.57v-3.02h3.88V18.29z M10.93,14.32H7.85v-2.35l3.08-0.44V14.32z M10.93,17.7l-3.08-0.43v-2.56h3.08V17.7z M18.75,6.91
		L4.87,9.69v10.09l13.88,2.78l2.77-1.01V7.92L18.75,6.91z"/>
	<path class="st1" d="M30.94,7.29c0,0.52-0.11,0.97-0.34,1.37c-0.23,0.39-0.55,0.7-0.96,0.91c-0.42,0.21-0.9,0.32-1.43,0.32h-1.34
		V4.82h1.4C30.05,4.82,30.94,5.64,30.94,7.29 M30.32,7.3c0-1.3-0.69-1.95-2.07-1.95h-0.79v4h0.75c0.67,0,1.19-0.18,1.56-0.54
		C30.13,8.46,30.32,7.96,30.32,7.3 M35.15,8.07c0,0.57-0.16,1.04-0.49,1.39c-0.33,0.35-0.76,0.53-1.31,0.53
		c-0.54,0-0.96-0.17-1.28-0.51c-0.32-0.34-0.48-0.79-0.48-1.35c0-0.6,0.16-1.07,0.49-1.42c0.33-0.35,0.78-0.52,1.36-0.52
		c0.54,0,0.96,0.17,1.26,0.5C35,7.02,35.15,7.48,35.15,8.07 M34.56,8.09c0-0.46-0.1-0.8-0.3-1.05c-0.2-0.24-0.49-0.36-0.87-0.36
		c-0.37,0-0.67,0.12-0.88,0.37c-0.22,0.25-0.33,0.6-0.33,1.05c0,0.44,0.11,0.77,0.33,1.02c0.22,0.24,0.51,0.37,0.88,0.37
		c0.38,0,0.67-0.12,0.87-0.36C34.46,8.88,34.56,8.54,34.56,8.09 M40.62,6.27l-1.09,3.62h-0.6L38.18,7.3
		c-0.02-0.09-0.04-0.2-0.06-0.33h-0.01c-0.01,0.08-0.03,0.19-0.07,0.33l-0.81,2.6h-0.58l-1.09-3.62h0.61l0.75,2.72
		c0.02,0.09,0.04,0.2,0.05,0.33h0.03c0-0.09,0.03-0.2,0.07-0.33l0.83-2.72h0.53L39.17,9c0.02,0.09,0.04,0.2,0.05,0.33h0.03
		C39.25,9.21,39.27,9.1,39.3,9l0.74-2.73H40.62z M44.3,9.89h-0.58V7.82c0-0.77-0.28-1.15-0.84-1.15c-0.29,0-0.53,0.11-0.72,0.32
		c-0.19,0.22-0.29,0.49-0.29,0.83v2.07h-0.58V6.27h0.58v0.6h0.01c0.27-0.46,0.67-0.69,1.19-0.69c0.4,0,0.7,0.13,0.91,0.39
		c0.21,0.26,0.31,0.63,0.31,1.1V9.89z M45.97,9.89h-0.58V4.53h0.58V9.89z M50.44,8.07c0,0.57-0.16,1.04-0.49,1.39
		c-0.33,0.35-0.77,0.53-1.31,0.53c-0.54,0-0.96-0.17-1.28-0.51c-0.32-0.34-0.48-0.79-0.48-1.35c0-0.6,0.16-1.07,0.49-1.42
		c0.33-0.35,0.78-0.52,1.35-0.52c0.54,0,0.96,0.17,1.26,0.5C50.29,7.02,50.44,7.48,50.44,8.07 M49.85,8.09c0-0.46-0.1-0.8-0.3-1.05
		c-0.2-0.24-0.49-0.36-0.86-0.36c-0.37,0-0.67,0.12-0.89,0.37c-0.22,0.25-0.32,0.6-0.32,1.05c0,0.44,0.11,0.77,0.33,1.02
		c0.22,0.24,0.51,0.37,0.88,0.37c0.38,0,0.67-0.12,0.87-0.36C49.74,8.88,49.85,8.54,49.85,8.09 M53.9,9.89h-0.58V9.33h-0.01
		c-0.25,0.44-0.62,0.66-1.11,0.66c-0.35,0-0.63-0.1-0.84-0.29c-0.21-0.19-0.32-0.45-0.32-0.77c0-0.67,0.4-1.07,1.2-1.18l1.09-0.15
		c0-0.61-0.25-0.92-0.75-0.92c-0.44,0-0.83,0.15-1.18,0.44V6.52c0.1-0.08,0.29-0.16,0.54-0.23c0.26-0.07,0.49-0.11,0.69-0.11
		c0.85,0,1.28,0.45,1.28,1.36V9.89z M53.32,8.06l-0.88,0.12c-0.3,0.04-0.51,0.11-0.63,0.21c-0.12,0.1-0.18,0.26-0.18,0.49
		c0,0.18,0.06,0.33,0.19,0.44c0.13,0.11,0.29,0.17,0.5,0.17c0.29,0,0.53-0.1,0.71-0.3c0.19-0.2,0.28-0.46,0.28-0.76V8.06z
		 M58.06,9.89h-0.58V9.28h-0.01c-0.27,0.47-0.69,0.71-1.25,0.71c-0.46,0-0.82-0.17-1.09-0.49c-0.27-0.33-0.41-0.77-0.41-1.32
		c0-0.6,0.15-1.08,0.45-1.44c0.3-0.36,0.7-0.54,1.21-0.54c0.49,0,0.86,0.2,1.09,0.59h0.01V4.53h0.58V9.89z M57.48,8.25V7.72
		c0-0.3-0.1-0.55-0.3-0.75c-0.2-0.2-0.44-0.3-0.73-0.3c-0.35,0-0.63,0.13-0.83,0.39c-0.2,0.26-0.31,0.62-0.31,1.07
		c0,0.41,0.1,0.74,0.29,0.99c0.19,0.24,0.45,0.36,0.78,0.36c0.32,0,0.58-0.12,0.79-0.35C57.38,8.91,57.48,8.61,57.48,8.25
		 M62.71,5.04c-0.11-0.06-0.24-0.1-0.39-0.1c-0.4,0-0.61,0.26-0.61,0.77v0.56h0.85v0.49h-0.85v3.13h-0.58V6.76h-0.62V6.27h0.62V5.68
		c0-0.37,0.11-0.66,0.33-0.89c0.22-0.23,0.49-0.34,0.83-0.34c0.18,0,0.32,0.02,0.42,0.06V5.04z M65.08,6.86
		c-0.1-0.08-0.25-0.12-0.44-0.12c-0.26,0-0.46,0.12-0.62,0.36c-0.16,0.24-0.24,0.56-0.24,0.94v1.85h-0.58V6.27h0.58v0.75h0.01
		c0.08-0.25,0.2-0.45,0.37-0.59c0.17-0.14,0.36-0.22,0.58-0.22c0.15,0,0.27,0.02,0.35,0.05V6.86z M68.91,8.07
		c0,0.57-0.16,1.04-0.49,1.39c-0.33,0.35-0.77,0.53-1.32,0.53c-0.53,0-0.96-0.17-1.28-0.51c-0.32-0.34-0.48-0.79-0.48-1.35
		c0-0.6,0.16-1.07,0.49-1.42c0.33-0.35,0.78-0.52,1.36-0.52c0.54,0,0.96,0.17,1.26,0.5C68.76,7.02,68.91,7.48,68.91,8.07
		 M68.32,8.09c0-0.46-0.1-0.8-0.3-1.05c-0.2-0.24-0.49-0.36-0.86-0.36c-0.37,0-0.67,0.12-0.89,0.37c-0.22,0.25-0.33,0.6-0.33,1.05
		c0,0.44,0.11,0.77,0.33,1.02c0.22,0.24,0.51,0.37,0.88,0.37c0.38,0,0.67-0.12,0.87-0.36C68.22,8.88,68.32,8.54,68.32,8.09
		 M74.95,9.89h-0.58V7.81c0-0.4-0.06-0.7-0.19-0.87c-0.12-0.18-0.33-0.26-0.62-0.26c-0.25,0-0.46,0.11-0.63,0.34
		c-0.17,0.23-0.26,0.5-0.26,0.81v2.07h-0.58V7.74c0-0.71-0.27-1.07-0.82-1.07c-0.25,0-0.46,0.11-0.63,0.32
		c-0.17,0.21-0.25,0.49-0.25,0.83v2.07h-0.58V6.27h0.58v0.57h0.01c0.26-0.44,0.63-0.66,1.12-0.66c0.23,0,0.45,0.07,0.64,0.2
		c0.19,0.13,0.32,0.32,0.39,0.55c0.27-0.5,0.67-0.75,1.2-0.75c0.8,0,1.2,0.49,1.2,1.48V9.89z"/>
	<path class="st1" d="M36.15,13.15l-2.13,7.56h-1.04l-1.56-5.53c-0.06-0.21-0.1-0.46-0.11-0.76h-0.02
		c-0.03,0.26-0.08,0.51-0.14,0.75l-1.57,5.54h-1.03l-2.21-7.56h0.97l1.61,5.8c0.07,0.26,0.11,0.51,0.13,0.76h0.02
		c0.02-0.21,0.07-0.47,0.16-0.76l1.68-5.8h0.85l1.6,5.84c0.06,0.22,0.1,0.45,0.13,0.7h0.02c0.02-0.18,0.06-0.42,0.14-0.72l1.54-5.82
		H36.15z M37.86,13.53c0,0.16-0.06,0.3-0.17,0.4c-0.11,0.11-0.25,0.16-0.4,0.16c-0.16,0-0.29-0.05-0.4-0.15
		c-0.11-0.11-0.16-0.24-0.16-0.41c0-0.15,0.06-0.28,0.16-0.39c0.11-0.11,0.24-0.17,0.4-0.17c0.16,0,0.3,0.06,0.41,0.16
		C37.81,13.25,37.86,13.38,37.86,13.53 M37.71,20.71h-0.86v-5.4h0.86V20.71z M43.5,20.71h-0.86v-3.08c0-1.14-0.42-1.71-1.25-1.71
		c-0.43,0-0.78,0.16-1.07,0.48c-0.29,0.32-0.43,0.73-0.43,1.23v3.08h-0.86v-5.4h0.86v0.9h0.02c0.41-0.68,0.99-1.03,1.77-1.03
		c0.59,0,1.05,0.19,1.36,0.58c0.31,0.39,0.47,0.93,0.47,1.64V20.71z M49.5,20.71h-0.86v-0.92h-0.02c-0.4,0.7-1.02,1.05-1.85,1.05
		c-0.68,0-1.22-0.25-1.63-0.73c-0.4-0.49-0.6-1.14-0.6-1.96c0-0.89,0.22-1.61,0.67-2.15c0.45-0.54,1.05-0.81,1.8-0.81
		c0.74,0,1.28,0.29,1.62,0.87h0.02v-3.34h0.86V20.71z M48.63,18.26v-0.8c0-0.45-0.15-0.82-0.44-1.11c-0.3-0.29-0.66-0.44-1.08-0.44
		c-0.52,0-0.93,0.19-1.24,0.58c-0.31,0.38-0.46,0.92-0.46,1.6c0,0.62,0.15,1.11,0.43,1.47c0.29,0.36,0.68,0.54,1.17,0.54
		c0.47,0,0.86-0.17,1.17-0.52C48.48,19.24,48.63,18.8,48.63,18.26 M55.88,17.99c0,0.86-0.24,1.55-0.73,2.07
		c-0.49,0.52-1.14,0.78-1.96,0.78c-0.8,0-1.43-0.25-1.91-0.76c-0.48-0.51-0.71-1.18-0.71-2c0-0.89,0.24-1.6,0.73-2.12
		c0.49-0.52,1.16-0.78,2.02-0.78c0.8,0,1.43,0.25,1.88,0.75C55.65,16.43,55.88,17.11,55.88,17.99 M54.99,18.02
		c0-0.68-0.15-1.2-0.45-1.56c-0.3-0.36-0.73-0.54-1.29-0.54c-0.55,0-0.99,0.19-1.32,0.56c-0.32,0.37-0.48,0.89-0.48,1.57
		c0,0.65,0.16,1.15,0.49,1.51c0.32,0.36,0.76,0.55,1.31,0.55c0.56,0,0.99-0.18,1.29-0.54C54.84,19.2,54.99,18.69,54.99,18.02
		 M63.74,15.31l-1.62,5.4h-0.9l-1.11-3.86c-0.04-0.13-0.07-0.3-0.08-0.5h-0.02c-0.01,0.12-0.05,0.28-0.11,0.48l-1.21,3.87h-0.86
		l-1.63-5.4h0.91l1.11,4.06c0.03,0.14,0.06,0.3,0.07,0.49h0.04c0.01-0.13,0.04-0.3,0.1-0.5l1.24-4.05h0.79l1.12,4.07
		c0.03,0.14,0.06,0.3,0.07,0.49h0.04c0.01-0.17,0.04-0.33,0.08-0.49l1.1-4.07H63.74z M67.43,19.26c0,0.47-0.18,0.85-0.54,1.14
		c-0.36,0.29-0.84,0.44-1.44,0.44c-0.51,0-0.96-0.11-1.34-0.33v-0.93c0.42,0.34,0.89,0.52,1.4,0.52c0.68,0,1.03-0.25,1.03-0.75
		c0-0.2-0.07-0.37-0.2-0.5c-0.13-0.13-0.44-0.3-0.91-0.52c-0.48-0.2-0.81-0.42-1.01-0.66c-0.2-0.23-0.29-0.54-0.29-0.93
		c0-0.45,0.18-0.82,0.54-1.12c0.36-0.3,0.81-0.45,1.36-0.45c0.43,0,0.81,0.08,1.15,0.25v0.87c-0.35-0.26-0.76-0.39-1.22-0.39
		c-0.29,0-0.51,0.07-0.69,0.21c-0.17,0.14-0.26,0.32-0.26,0.54c0,0.24,0.07,0.42,0.2,0.55c0.13,0.13,0.41,0.28,0.83,0.45
		c0.51,0.22,0.87,0.45,1.08,0.69C67.32,18.6,67.43,18.9,67.43,19.26"/>
	<path class="st1" d="M75.12,18.8c0,0.63-0.23,1.13-0.67,1.5c-0.45,0.36-1.06,0.54-1.83,0.54c-0.28,0-0.6-0.05-0.95-0.14
		c-0.35-0.09-0.6-0.19-0.75-0.29v-1.05c0.21,0.19,0.5,0.35,0.85,0.48c0.35,0.13,0.68,0.2,0.98,0.2c0.97,0,1.45-0.38,1.45-1.13
		c0-0.32-0.1-0.59-0.31-0.81c-0.21-0.23-0.63-0.52-1.28-0.89c-0.62-0.35-1.06-0.69-1.31-1c-0.25-0.32-0.38-0.7-0.38-1.15
		c0-0.6,0.22-1.08,0.67-1.46c0.45-0.38,1.02-0.56,1.73-0.56c0.68,0,1.17,0.09,1.49,0.27v0.99c-0.39-0.31-0.9-0.46-1.53-0.46
		c-0.42,0-0.76,0.1-1.02,0.31c-0.27,0.21-0.4,0.49-0.4,0.83c0,0.25,0.04,0.45,0.12,0.6c0.08,0.15,0.21,0.3,0.4,0.45
		c0.19,0.15,0.5,0.35,0.95,0.6c0.67,0.37,1.13,0.72,1.4,1.05C74.98,17.99,75.12,18.37,75.12,18.8 M78.69,20.65
		c-0.21,0.12-0.48,0.17-0.81,0.17c-0.94,0-1.41-0.53-1.41-1.59v-3.19h-0.93v-0.73h0.93v-1.32l0.86-0.28v1.6h1.36v0.73h-1.36v3.05
		c0,0.36,0.06,0.62,0.18,0.77c0.12,0.15,0.33,0.23,0.62,0.23c0.21,0,0.4-0.06,0.56-0.17V20.65z M84.65,17.99
		c0,0.86-0.24,1.55-0.73,2.07c-0.49,0.52-1.14,0.78-1.96,0.78c-0.8,0-1.43-0.25-1.91-0.76c-0.48-0.51-0.71-1.18-0.71-2
		c0-0.89,0.24-1.6,0.73-2.12c0.49-0.52,1.16-0.78,2.02-0.78c0.8,0,1.43,0.25,1.88,0.75C84.42,16.43,84.65,17.12,84.65,17.99
		 M83.76,18.02c0-0.68-0.15-1.2-0.45-1.56c-0.3-0.36-0.73-0.54-1.29-0.54c-0.56,0-1,0.19-1.32,0.56c-0.32,0.37-0.48,0.89-0.48,1.57
		c0,0.65,0.16,1.15,0.49,1.52c0.32,0.36,0.76,0.54,1.32,0.54c0.56,0,0.99-0.18,1.29-0.54C83.61,19.2,83.76,18.69,83.76,18.02
		 M88.37,16.18c-0.15-0.12-0.37-0.17-0.66-0.17c-0.38,0-0.69,0.18-0.93,0.54c-0.24,0.36-0.36,0.83-0.36,1.41v2.75h-0.86v-5.4h0.86
		v1.11h0.02c0.12-0.37,0.3-0.67,0.55-0.88c0.25-0.21,0.54-0.32,0.86-0.32c0.23,0,0.4,0.02,0.52,0.07V16.18z M93.57,18.22h-3.81
		c0.01,0.61,0.18,1.07,0.48,1.39c0.31,0.32,0.73,0.48,1.28,0.48c0.61,0,1.17-0.2,1.67-0.59v0.81c-0.47,0.35-1.1,0.52-1.88,0.52
		c-0.77,0-1.37-0.25-1.8-0.75c-0.43-0.5-0.65-1.18-0.65-2.06c0-0.53,0.11-1.02,0.32-1.46c0.22-0.44,0.51-0.78,0.89-1.03
		c0.38-0.24,0.8-0.36,1.26-0.36c0.7,0,1.25,0.23,1.64,0.68c0.39,0.45,0.59,1.09,0.59,1.91V18.22z M92.69,17.49
		c-0.01-0.5-0.13-0.89-0.36-1.16c-0.23-0.28-0.56-0.41-0.99-0.41c-0.4,0-0.74,0.14-1.03,0.43c-0.29,0.29-0.46,0.67-0.54,1.14H92.69z
		"/>
</g>
</svg>
