<?xml version="1.0" encoding="utf-8"?>
<!-- Generator: Adobe Illustrator 25.2.1, SVG Export Plug-In . SVG Version: 6.00 Build 0)  -->
<svg version="1.1" xmlns="http://www.w3.org/2000/svg" xmlns:xlink="http://www.w3.org/1999/xlink" x="0px" y="0px"
	 viewBox="0 0 217.61 64.05" style="enable-background:new 0 0 217.61 64.05;" xml:space="preserve">
<style type="text/css">
	.st0{fill:#A7A9AC;}
	.st1{fill:#FFFFFF;}
	.st2{fill:#5BC9F4;}
	.st3{fill:url(#SVGID_1_);}
	.st4{fill:url(#SVGID_2_);}
	.st5{fill:url(#SVGID_3_);}
</style>
<g id="Google_Play">
</g>
<g id="App_Store">
	<g>
		<g>
			<path d="M209.43,63.25H8.19c-4.08,0-7.38-3.3-7.38-7.38V8.19c0-4.08,3.31-7.38,7.38-7.38h201.24c4.08,0,7.38,3.31,7.38,7.38
				v47.67C216.81,59.94,213.5,63.25,209.43,63.25z"/>
			<path class="st0" d="M209.43,64.05H8.19C3.67,64.05,0,60.38,0,55.86V8.19C0,3.67,3.67,0,8.19,0h201.24
				c4.52,0,8.19,3.67,8.19,8.19v47.67C217.61,60.38,213.94,64.05,209.43,64.05z M8.19,1.62c-3.62,0-6.57,2.95-6.57,6.57v47.67
				c0,3.62,2.95,6.57,6.57,6.57h201.24c3.62,0,6.57-2.95,6.57-6.57V8.19c0-3.63-2.95-6.57-6.57-6.57H8.19z"/>
		</g>
		<g>
			<path class="st1" d="M72.45,18.21l-0.91,2.98h-1.98l3.37-10.52h2.45L78.8,21.2h-2.06l-0.95-2.98H72.45z M75.46,16.76l-0.83-2.59
				c-0.2-0.64-0.37-1.36-0.53-1.97h-0.03c-0.16,0.61-0.31,1.34-0.5,1.97l-0.81,2.59H75.46z"/>
			<path class="st1" d="M81.67,13.59l1.23,3.86c0.22,0.67,0.37,1.28,0.52,1.9h0.05c0.14-0.62,0.31-1.22,0.52-1.9l1.22-3.86h2.01
				l-2.9,7.6h-1.89l-2.83-7.6H81.67z"/>
			<path class="st1" d="M94.88,19.37c0,0.69,0.03,1.36,0.12,1.83h-1.73l-0.14-0.84h-0.05c-0.45,0.59-1.25,1.01-2.25,1.01
				c-1.53,0-2.39-1.11-2.39-2.26c0-1.9,1.7-2.89,4.51-2.87v-0.12c0-0.5-0.2-1.33-1.55-1.33c-0.75,0-1.53,0.23-2.04,0.56l-0.37-1.25
				c0.56-0.34,1.55-0.67,2.75-0.67c2.44,0,3.14,1.55,3.14,3.22V19.37z M93,17.48c-1.36-0.02-2.65,0.27-2.65,1.42
				c0,0.75,0.48,1.09,1.09,1.09c0.78,0,1.33-0.5,1.51-1.05C93,18.81,93,18.67,93,18.53V17.48z"/>
			<path class="st1" d="M98.54,12.5c-0.64,0-1.06-0.47-1.06-1.03c0-0.59,0.44-1.05,1.08-1.05c0.66,0,1.06,0.45,1.08,1.05
				c0,0.56-0.42,1.03-1.08,1.03H98.54z M97.59,21.2v-7.6h1.92v7.6H97.59z"/>
			<path class="st1" d="M102.27,10.1h1.92v11.1h-1.92V10.1z"/>
			<path class="st1" d="M112.87,19.37c0,0.69,0.03,1.36,0.12,1.83h-1.73l-0.14-0.84h-0.05c-0.45,0.59-1.25,1.01-2.25,1.01
				c-1.53,0-2.39-1.11-2.39-2.26c0-1.9,1.7-2.89,4.51-2.87v-0.12c0-0.5-0.2-1.33-1.54-1.33c-0.75,0-1.53,0.23-2.04,0.56l-0.37-1.25
				c0.56-0.34,1.55-0.67,2.75-0.67c2.43,0,3.14,1.55,3.14,3.22V19.37z M110.99,17.48c-1.36-0.02-2.65,0.27-2.65,1.42
				c0,0.75,0.48,1.09,1.09,1.09c0.78,0,1.33-0.5,1.51-1.05c0.05-0.14,0.05-0.28,0.05-0.42V17.48z"/>
			<path class="st1" d="M115.58,10.1h1.92v4.54h0.03c0.47-0.73,1.3-1.22,2.44-1.22c1.86,0,3.18,1.55,3.17,3.86
				c0,2.73-1.73,4.09-3.45,4.09c-0.98,0-1.86-0.38-2.4-1.31h-0.03l-0.09,1.14h-1.64c0.03-0.52,0.06-1.36,0.06-2.12V10.1z
				 M117.5,18.06c0,0.16,0.02,0.31,0.05,0.45c0.2,0.78,0.87,1.34,1.7,1.34c1.2,0,1.94-0.95,1.94-2.5c0-1.34-0.64-2.43-1.92-2.43
				c-0.78,0-1.5,0.56-1.7,1.4c-0.03,0.14-0.06,0.31-0.06,0.5V18.06z"/>
			<path class="st1" d="M125.4,10.1h1.92v11.1h-1.92V10.1z"/>
			<path class="st1" d="M131.45,17.93c0.05,1.37,1.12,1.97,2.34,1.97c0.89,0,1.51-0.14,2.11-0.34l0.28,1.31
				c-0.66,0.28-1.56,0.48-2.65,0.48c-2.47,0-3.92-1.51-3.92-3.84c0-2.11,1.28-4.09,3.72-4.09c2.47,0,3.28,2.03,3.28,3.7
				c0,0.36-0.03,0.64-0.06,0.81H131.45z M134.79,16.59c0.02-0.7-0.3-1.86-1.58-1.86c-1.19,0-1.69,1.08-1.76,1.86H134.79z"/>
			<path class="st1" d="M146.08,21.37c-2.14,0-3.81-1.47-3.81-3.92c0-2.5,1.64-4.03,3.93-4.03c2.26,0,3.78,1.59,3.78,3.9
				c0,2.79-1.97,4.04-3.89,4.04H146.08z M146.14,19.98c1.09,0,1.86-1.06,1.86-2.61c0-1.19-0.53-2.56-1.84-2.56
				c-1.36,0-1.91,1.33-1.91,2.59c0,1.47,0.73,2.58,1.87,2.58H146.14z"/>
			<path class="st1" d="M152.24,15.86c0-0.87-0.03-1.61-0.06-2.26h1.67l0.09,1.14h0.05c0.34-0.59,1.17-1.31,2.44-1.31
				c1.33,0,2.7,0.86,2.7,3.26v4.51h-1.92V16.9c0-1.09-0.41-1.92-1.45-1.92c-0.76,0-1.29,0.55-1.5,1.12
				c-0.06,0.16-0.09,0.39-0.09,0.61v4.48h-1.92V15.86z"/>
			<path class="st1" d="M167.97,11.64v1.95h1.83v1.44h-1.83v3.34c0,0.94,0.25,1.4,0.98,1.4c0.34,0,0.53-0.02,0.75-0.08l0.03,1.45
				c-0.28,0.11-0.8,0.2-1.39,0.2c-0.72,0-1.29-0.23-1.65-0.62c-0.42-0.44-0.61-1.14-0.61-2.14v-3.56H165v-1.44h1.08v-1.42
				L167.97,11.64z"/>
			<path class="st1" d="M171.93,10.1h1.92v4.53h0.03c0.23-0.36,0.56-0.66,0.95-0.86c0.39-0.22,0.84-0.34,1.33-0.34
				c1.29,0,2.65,0.86,2.65,3.29v4.48h-1.92v-4.28c0-1.09-0.41-1.94-1.47-1.94c-0.75,0-1.28,0.5-1.5,1.08
				c-0.06,0.17-0.08,0.38-0.08,0.58v4.56h-1.92V10.1z"/>
			<path class="st1" d="M182.9,17.93c0.05,1.37,1.12,1.97,2.34,1.97c0.89,0,1.51-0.14,2.11-0.34l0.28,1.31
				c-0.66,0.28-1.56,0.48-2.65,0.48c-2.47,0-3.92-1.51-3.92-3.84c0-2.11,1.28-4.09,3.72-4.09c2.47,0,3.28,2.03,3.28,3.7
				c0,0.36-0.03,0.64-0.06,0.81H182.9z M186.24,16.59c0.02-0.7-0.3-1.86-1.58-1.86c-1.19,0-1.69,1.08-1.76,1.86H186.24z"/>
		</g>
		<g>
			<g>
				<path class="st1" d="M48.57,31.4c-0.05-5.21,4.26-7.74,4.46-7.86c-2.44-3.56-6.23-4.05-7.56-4.09c-3.18-0.33-6.26,1.9-7.88,1.9
					c-1.65,0-4.15-1.87-6.83-1.82c-3.46,0.06-6.69,2.06-8.47,5.16c-3.66,6.34-0.93,15.65,2.58,20.78c1.76,2.51,3.81,5.31,6.49,5.21
					c2.62-0.11,3.6-1.67,6.77-1.67c3.14,0,4.06,1.67,6.8,1.61c2.82-0.05,4.59-2.52,6.28-5.05c2.03-2.88,2.84-5.71,2.88-5.85
					C54.02,39.71,48.62,37.64,48.57,31.4"/>
				<path class="st1" d="M43.39,16.09c1.41-1.77,2.38-4.17,2.11-6.61c-2.04,0.09-4.6,1.41-6.07,3.14c-1.3,1.52-2.47,4.02-2.17,6.36
					C39.57,19.16,41.92,17.83,43.39,16.09"/>
			</g>
			<g>
				<path class="st1" d="M86.51,50.28h-3.66l-2-6.3h-6.96l-1.91,6.3h-3.56l6.9-21.44h4.26L86.51,50.28z M80.25,41.34l-1.81-5.6
					c-0.19-0.57-0.55-1.92-1.08-4.04h-0.06c-0.21,0.91-0.55,2.26-1.02,4.04l-1.78,5.6H80.25z"/>
				<path class="st1" d="M104.26,42.36c0,2.63-0.71,4.71-2.13,6.23c-1.27,1.36-2.85,2.03-4.74,2.03c-2.04,0-3.5-0.73-4.39-2.19
					h-0.06v8.14H89.5V39.91c0-1.65-0.04-3.35-0.13-5.09h3.02l0.19,2.45h0.07c1.14-1.85,2.88-2.77,5.21-2.77
					c1.82,0,3.35,0.72,4.56,2.16C103.65,38.12,104.26,40.01,104.26,42.36 M100.76,42.49c0-1.5-0.34-2.75-1.02-3.72
					C99,37.75,98,37.24,96.75,37.24c-0.85,0-1.62,0.28-2.31,0.84c-0.69,0.57-1.14,1.3-1.35,2.21c-0.11,0.42-0.16,0.77-0.16,1.05
					v2.58c0,1.12,0.34,2.07,1.03,2.84c0.69,0.78,1.59,1.16,2.69,1.16c1.29,0,2.3-0.49,3.02-1.49
					C100.4,45.44,100.76,44.12,100.76,42.49"/>
				<path class="st1" d="M122.04,42.36c0,2.63-0.71,4.71-2.13,6.23c-1.27,1.36-2.85,2.03-4.74,2.03c-2.03,0-3.5-0.73-4.39-2.19
					h-0.06v8.14h-3.43V39.91c0-1.65-0.04-3.35-0.13-5.09h3.02l0.19,2.45h0.07c1.14-1.85,2.88-2.77,5.21-2.77
					c1.82,0,3.34,0.72,4.56,2.16C121.43,38.12,122.04,40.01,122.04,42.36 M118.54,42.49c0-1.5-0.34-2.75-1.02-3.72
					c-0.74-1.02-1.74-1.53-2.99-1.53c-0.85,0-1.62,0.28-2.31,0.84c-0.69,0.57-1.14,1.3-1.35,2.21c-0.11,0.42-0.16,0.77-0.16,1.05
					v2.58c0,1.12,0.34,2.07,1.03,2.84c0.69,0.78,1.58,1.16,2.69,1.16c1.29,0,2.3-0.49,3.02-1.49
					C118.18,45.44,118.54,44.12,118.54,42.49"/>
				<path class="st1" d="M141.92,44.27c0,1.82-0.63,3.31-1.91,4.45c-1.4,1.25-3.34,1.88-5.84,1.88c-2.31,0-4.16-0.44-5.56-1.33
					l0.8-2.86c1.51,0.91,3.16,1.37,4.97,1.37c1.29,0,2.3-0.29,3.02-0.87c0.72-0.59,1.08-1.37,1.08-2.34c0-0.87-0.3-1.6-0.89-2.2
					c-0.59-0.6-1.58-1.15-2.96-1.66c-3.75-1.4-5.63-3.45-5.63-6.15c0-1.76,0.66-3.21,1.97-4.33c1.31-1.13,3.06-1.69,5.25-1.69
					c1.95,0,3.57,0.34,4.86,1.02l-0.86,2.8c-1.21-0.66-2.58-0.99-4.1-0.99c-1.21,0-2.15,0.3-2.83,0.89
					c-0.57,0.53-0.86,1.18-0.86,1.94c0,0.85,0.33,1.55,0.98,2.1c0.57,0.51,1.61,1.06,3.12,1.66c1.84,0.74,3.2,1.61,4.07,2.61
					C141.48,41.55,141.92,42.79,141.92,44.27"/>
				<path class="st1" d="M153.27,37.4h-3.78v7.51c0,1.91,0.67,2.86,2.01,2.86c0.61,0,1.12-0.05,1.52-0.16l0.09,2.61
					c-0.67,0.25-1.57,0.38-2.67,0.38c-1.36,0-2.42-0.41-3.18-1.24c-0.76-0.83-1.15-2.22-1.15-4.17V37.4h-2.26v-2.58h2.26v-2.83
					l3.37-1.02v3.85h3.78V37.4z"/>
				<path class="st1" d="M170.35,42.43c0,2.38-0.68,4.33-2.03,5.85c-1.42,1.57-3.31,2.35-5.66,2.35c-2.27,0-4.08-0.75-5.42-2.26
					c-1.35-1.5-2.02-3.4-2.02-5.69c0-2.4,0.69-4.36,2.08-5.88c1.39-1.53,3.26-2.29,5.61-2.29c2.27,0,4.09,0.75,5.47,2.26
					C169.7,38.23,170.35,40.12,170.35,42.43 M166.79,42.54c0-1.42-0.31-2.65-0.92-3.67c-0.72-1.23-1.75-1.85-3.08-1.85
					c-1.38,0-2.43,0.62-3.15,1.85c-0.62,1.02-0.92,2.26-0.92,3.73c0,1.42,0.3,2.65,0.92,3.67c0.74,1.23,1.78,1.85,3.12,1.85
					c1.31,0,2.34-0.63,3.08-1.88C166.47,45.2,166.79,43.96,166.79,42.54"/>
				<path class="st1" d="M181.51,37.85c-0.34-0.06-0.7-0.09-1.08-0.09c-1.21,0-2.14,0.46-2.8,1.37c-0.57,0.81-0.86,1.82-0.86,3.05
					v8.11h-3.43l0.03-10.59c0-1.78-0.04-3.4-0.13-4.87h2.99l0.13,2.96h0.09c0.36-1.02,0.94-1.84,1.72-2.45
					c0.76-0.55,1.59-0.83,2.48-0.83c0.32,0,0.6,0.02,0.86,0.06V37.85z"/>
				<path class="st1" d="M196.87,41.82c0,0.62-0.04,1.13-0.12,1.56h-10.3c0.04,1.53,0.54,2.69,1.49,3.5
					c0.87,0.72,1.99,1.08,3.37,1.08c1.52,0,2.91-0.24,4.17-0.73l0.54,2.39c-1.46,0.64-3.19,0.96-5.19,0.96
					c-2.39,0-4.28-0.71-5.64-2.12c-1.36-1.41-2.05-3.3-2.05-5.68c0-2.33,0.64-4.27,1.91-5.82c1.33-1.65,3.14-2.48,5.4-2.48
					c2.23,0,3.92,0.83,5.06,2.48C196.42,38.27,196.87,39.89,196.87,41.82 M193.6,40.93c0.02-1.02-0.2-1.9-0.67-2.64
					c-0.59-0.95-1.51-1.43-2.74-1.43c-1.12,0-2.03,0.47-2.73,1.4c-0.57,0.74-0.91,1.63-1.01,2.67H193.6z"/>
			</g>
		</g>
	</g>
</g>
</svg>
