<?xml version="1.0" encoding="utf-8"?>
<!-- Generator: Adobe Illustrator 25.2.1, SVG Export Plug-In . SVG Version: 6.00 Build 0)  -->
<svg version="1.1" id="Layer_1" xmlns="http://www.w3.org/2000/svg" xmlns:xlink="http://www.w3.org/1999/xlink" x="0px" y="0px"
	 viewBox="0 0 20.71 20.72" style="enable-background:new 0 0 20.71 20.72;" xml:space="preserve">
<style type="text/css">
	.st0{fill:#FDFEFE;}
	.st1{fill:#66B8CF;}
	.st2{fill:#F9FCFD;}
	.st3{fill:none;stroke:#000000;stroke-width:2;stroke-linecap:round;stroke-miterlimit:10;}
	.st4{fill:#EB5759;}
	.st5{fill:#1BA8C3;}
</style>
<g>
	<path class="st5" d="M10.34,20.72c-2.74,0-5.34-1.06-7.31-3.03c-2.39-2.39-3.44-5.7-2.89-9.07c0.71-4.33,4.24-7.82,8.58-8.48
		c2.42-0.37,4.78,0.08,6.85,1.29c0.48,0.28,0.64,0.89,0.36,1.37c-0.28,0.48-0.89,0.64-1.37,0.36C12.9,2.16,10.98,1.81,9.03,2.1
		c-3.5,0.54-6.34,3.35-6.91,6.83c-0.45,2.73,0.4,5.4,2.33,7.33c1.93,1.93,4.6,2.78,7.33,2.33c3.47-0.57,6.28-3.4,6.83-6.88
		c0.29-1.86-0.02-3.7-0.87-5.29l-6.08,9.34c-0.32,0.49-0.86,0.79-1.44,0.79c-0.6,0.01-1.13-0.27-1.46-0.75L4.59,9.77
		c-0.31-0.45-0.2-1.08,0.26-1.39c0.46-0.31,1.08-0.2,1.39,0.26l3.94,5.73l6.71-10.31c0.18-0.27,0.47-0.44,0.79-0.45
		c0.33-0.02,0.63,0.13,0.83,0.38c1.79,2.29,2.52,5.14,2.06,8.05c-0.68,4.32-4.17,7.83-8.48,8.54
		C11.51,20.67,10.93,20.72,10.34,20.72z"/>
</g>
</svg>
